<svg xmlns="http://www.w3.org/2000/svg" viewBox="0 0 195 146.79"><defs><style>.cls-1{fill:#231f20;}.cls-2{fill:none;stroke:#231f20;stroke-miterlimit:3.86;}.cls-3{fill:#fff;}</style></defs><g id="Layer_2" data-name="Layer 2"><g id="Layer_1-2" data-name="Layer 1"><path class="cls-1" d="M97.5,145.5c-10.48-25-62.22-36-84.77-64.3a48.5,48.5,0,1,1,79-55.2c4.1,10.32,7.16,10.06,11.48.17A49.14,49.14,0,0,1,117,10.11,48.53,48.53,0,0,1,182.47,81C160,109.43,108,120.51,97.5,145.5Z"/><path class="cls-2" d="M97.5,145.5c-10.48-25-62.22-36-84.77-64.3a48.5,48.5,0,1,1,79-55.2c4.1,10.32,7.16,10.06,11.48.17A49.14,49.14,0,0,1,117,10.11,48.53,48.53,0,0,1,182.47,81C160,109.43,108,120.51,97.5,145.5Z"/><path class="cls-3" d="M97.5,145.5c-10.48-25-62.22-36-84.77-64.3a48.5,48.5,0,1,1,79-55.2c4.1,10.32,7.16,10.06,11.48.17A49.14,49.14,0,0,1,117,10.11,48.53,48.53,0,0,1,182.47,81C160,109.43,108,120.51,97.5,145.5Z"/></g></g></svg>